<svg xmlns="http://www.w3.org/2000/svg" xmlns:xlink="http://www.w3.org/1999/xlink" class="icon" viewBox="0 0 1024 1024" width="432" height="432" id="svgcontent" overflow="visible" x="556" y="432"><defs><style type="text/css"></style></defs><g class="layer" style="pointer-events:all"><title style="pointer-events:inherit">Layer 1</title><path d="M512.697052151233,4.332847286233366 C232.4288584050319,4.332847286233366 5.229787941015177,231.53191775025016 5.229787941015177,511.8001114964514 S232.4288584050319,1019.2673757066693 512.697052151233,1019.2673757066693 C792.9652458974343,1019.2673757066693 1020.1643163614509,792.0683052426525 1020.1643163614509,511.8001114964514 C1020.1643163614509,231.53191775025016 792.9652458974343,4.332847286233366 512.697052151233,4.332847286233366 zM818.3426850774753,369.9031578015731 L467.19677784373295,728.6564092777842 C466.0000279011389,730.4521002985546 464.6674123075407,732.1674041424808 463.0981640384439,733.7570322592283 C449.334973591733,747.7353433200287 427.0235692693502,747.7353433200287 413.2513211125723,733.7570322592283 L238.83039499483965,556.651627320407 C225.07739447195405,542.6721840458481 225.07739447195405,520.0188511684382 238.83039499483965,506.05978774152993 C252.59245322779228,492.0803444669708 274.903857550175,492.0803444669708 288.6659157831277,506.05978774152993 L437.647130964109,657.3144881493126 L768.4947099378455,319.2920705888037 C782.2680903083817,305.31375952800306 804.5693047069392,305.31375952800306 818.3415528637171,319.2920705888037 C832.0945533866027,333.2703816496044 832.0945533866027,355.9225823132556 818.3415528637171,369.9031578015731 L818.3426850774753,369.9031578015731 z" id="svg_1" fill-opacity="1" stroke="none" fill="#ff8198" stroke-opacity="1"></path></g></svg>
