<?xml version="1.0" standalone="no"?><!DOCTYPE svg PUBLIC "-//W3C//DTD SVG 1.1//EN" "http://www.w3.org/Graphics/SVG/1.1/DTD/svg11.dtd"><svg t="1576379750733" class="icon" viewBox="0 0 1024 1024" version="1.1" xmlns="http://www.w3.org/2000/svg" p-id="1412" xmlns:xlink="http://www.w3.org/1999/xlink" width="200" height="200"><defs><style type="text/css"></style></defs><path d="M447.26 96H122.48a35 35 0 0 0-35 35v324.82a35 35 0 0 0 35 35h324.78a35 35 0 0 0 35-35V131a35 35 0 0 0-35-35z m-35 324.79H157.48V166h254.78zM894.24 96H569.46a35 35 0 0 0-35 35v324.82a35 35 0 0 0 35 35h324.78a35 35 0 0 0 35-35V131a35 35 0 0 0-35-35z m-35 324.79H604.46V166h254.78zM447.26 536.12H122.48a35 35 0 0 0-35 35V895.9a35 35 0 0 0 35 35h324.78a35 35 0 0 0 35-35V571.12a35 35 0 0 0-35-35z m-35 324.78H157.48V606.12h254.78zM894.24 536.12H569.46a35 35 0 0 0-35 35V895.9a35 35 0 0 0 35 35h324.78a35 35 0 0 0 35-35V571.12a35 35 0 0 0-35-35z m-35 324.78H604.46V606.12h254.78z" fill="#666666" p-id="1413"></path></svg>
