<?xml version="1.0" standalone="no"?><!DOCTYPE svg PUBLIC "-//W3C//DTD SVG 1.1//EN" "http://www.w3.org/Graphics/SVG/1.1/DTD/svg11.dtd"><svg t="1573814663449" class="icon" viewBox="0 0 1024 1024" version="1.1" xmlns="http://www.w3.org/2000/svg" p-id="1352" xmlns:xlink="http://www.w3.org/1999/xlink" width="200" height="200"><defs><style type="text/css"></style></defs><path d="M320.568889 264.533333a28.444444 28.444444 0 1 1 34.816 44.942223A256 256 0 0 0 512 768a28.444444 28.444444 0 0 1 0 56.888889 312.888889 312.888889 0 0 1-191.431111-560.355556z m378.88 498.005334a28.444444 28.444444 0 1 1-34.133333-45.511111A256 256 0 0 0 512 256a28.444444 28.444444 0 0 1 0.056889-56.888889 312.888889 312.888889 0 0 1 187.448889 563.427556z" fill="#5A6677" p-id="1353"></path><path d="M389.916444 235.861333c5.12 5.12 8.305778 12.288 8.305778 20.138667v170.666667a28.444444 28.444444 0 0 1-56.888889 0V284.444444H199.111111a28.444444 28.444444 0 1 1 0-56.888888h170.666667c7.850667 0 14.961778 3.185778 20.138666 8.305777zM634.083556 788.138667A28.330667 28.330667 0 0 1 625.777778 768v-170.666667a28.444444 28.444444 0 1 1 56.888889 0V739.555556h142.222222a28.444444 28.444444 0 0 1 0 56.888888h-170.666667a28.330667 28.330667 0 0 1-20.138666-8.305777z" fill="#5A6677" p-id="1354"></path></svg>